# xmcd
#
# Track frame offsets:
#	150
#	14853
#	26424
#	43410
#	59331
#	80191
#	97345
#	112266
#	126501
#	142359
#	155873
#	171037
#	182382
#	194482
#	208711
#	224560
#	241897
#	260861
#	276425
#	299716
#
# Disc length: 4176
#
# Revision: 3
# Processed by: cddbd v1.5.1PL0 Copyright (c) Steve Scherf et al.
# Submitted via: OrangeCD 5.2
# Normalized: r2:DSETVAR1
#
DISCID=62104e14
DTITLE=Various Artist - Line Dance Fever 15
DYEAR=2002
DGENRE=Country
TTITLE0=Raoul Malo - I Said I Love You
TTITLE1=Nat King Cole - L.O.V.E.
TTITLE2=Greg Holland - Teach Me To Dance
TTITLE3=Michael Bolton - Dance With Me
TTITLE4=The Lino Rich Teas - Shout It To The World
TTITLE5=Liz Abella - Ritmo De La Vida
TTITLE6=Lou Bega - Angelina
TTITLE7=Fun Club - Stompin'
TTITLE8=Bosson - One In A Million
TTITLE9=Aaron Carter - Leave It Up To Me
TTITLE10=Shakin' Stevens - A Love Worth Waitin' For
TTITLE11=Danny and The Juniors - At The Hop
TTITLE12=Jenai - Lyin' To My Heart
TTITLE13=Hal Ketchum - (She's Something) You're Everything
TTITLE14=Steve Holy - Good Morning Beautiful
TTITLE15=Tim McGraw - Señorita Margarita
TTITLE16=Leo Sayer - When I Need You
TTITLE17=Kaci - I Think I Love You
TTITLE18=The Borderers - World's Got The Rhythm
TTITLE19=The Belle Stars - Iko Iko
EXTD=
EXTT0=
EXTT1=
EXTT2=
EXTT3=
EXTT4=
EXTT5=
EXTT6=
EXTT7=
EXTT8=
EXTT9=
EXTT10=
EXTT11=
EXTT12=
EXTT13=
EXTT14=
EXTT15=
EXTT16=
EXTT17=
EXTT18=
EXTT19=
PLAYORDER=
